<mxfile host="Electron" agent="Mozilla/5.0 (Windows NT 10.0; Win64; x64) AppleWebKit/537.36 (KHTML, like Gecko) draw.io/26.0.9 Chrome/128.0.6613.186 Electron/32.2.5 Safari/537.36" version="26.0.9">
  <diagram name="Seite-1" id="l_pFQCQ6GJ18Px5iU4Fj">
    <mxGraphModel dx="869" dy="656" grid="1" gridSize="10" guides="1" tooltips="1" connect="1" arrows="1" fold="1" page="1" pageScale="1" pageWidth="827" pageHeight="1169" math="0" shadow="0">
      <root>
        <mxCell id="0" />
        <mxCell id="1" parent="0" />
        <mxCell id="dI0Ek6C9HSeSVLDOAz8v-1" value="User" style="shape=umlActor;verticalLabelPosition=bottom;verticalAlign=top;html=1;" vertex="1" parent="1">
          <mxGeometry x="160" y="150" width="30" height="60" as="geometry" />
        </mxCell>
        <mxCell id="dI0Ek6C9HSeSVLDOAz8v-2" value="Thuro Travel" style="whiteSpace=wrap;html=1;aspect=fixed;fillColor=none;verticalAlign=top;" vertex="1" parent="1">
          <mxGeometry x="230" y="40" width="490" height="490" as="geometry" />
        </mxCell>
        <mxCell id="dI0Ek6C9HSeSVLDOAz8v-16" style="edgeStyle=orthogonalEdgeStyle;rounded=0;orthogonalLoop=1;jettySize=auto;html=1;" edge="1" parent="1" source="dI0Ek6C9HSeSVLDOAz8v-4" target="dI0Ek6C9HSeSVLDOAz8v-14">
          <mxGeometry relative="1" as="geometry" />
        </mxCell>
        <mxCell id="dI0Ek6C9HSeSVLDOAz8v-17" value="include" style="edgeLabel;html=1;align=center;verticalAlign=middle;resizable=0;points=[];" vertex="1" connectable="0" parent="dI0Ek6C9HSeSVLDOAz8v-16">
          <mxGeometry x="0.129" y="-3" relative="1" as="geometry">
            <mxPoint x="1" as="offset" />
          </mxGeometry>
        </mxCell>
        <mxCell id="dI0Ek6C9HSeSVLDOAz8v-4" value="Search Flights" style="ellipse;whiteSpace=wrap;html=1;" vertex="1" parent="1">
          <mxGeometry x="320" y="140" width="140" height="70" as="geometry" />
        </mxCell>
        <mxCell id="dI0Ek6C9HSeSVLDOAz8v-5" value="Check Flight Status" style="ellipse;whiteSpace=wrap;html=1;" vertex="1" parent="1">
          <mxGeometry x="360" y="400" width="140" height="70" as="geometry" />
        </mxCell>
        <mxCell id="dI0Ek6C9HSeSVLDOAz8v-6" value="Book Flights" style="ellipse;whiteSpace=wrap;html=1;" vertex="1" parent="1">
          <mxGeometry x="450" y="250" width="140" height="70" as="geometry" />
        </mxCell>
        <mxCell id="dI0Ek6C9HSeSVLDOAz8v-9" value="" style="endArrow=none;html=1;rounded=0;entryX=1;entryY=0.3333333333333333;entryDx=0;entryDy=0;entryPerimeter=0;exitX=0;exitY=0;exitDx=0;exitDy=0;" edge="1" parent="1" source="dI0Ek6C9HSeSVLDOAz8v-5" target="dI0Ek6C9HSeSVLDOAz8v-1">
          <mxGeometry width="50" height="50" relative="1" as="geometry">
            <mxPoint x="230" y="330" as="sourcePoint" />
            <mxPoint x="280" y="280" as="targetPoint" />
          </mxGeometry>
        </mxCell>
        <mxCell id="dI0Ek6C9HSeSVLDOAz8v-10" value="" style="endArrow=none;html=1;rounded=0;entryX=1;entryY=0.3333333333333333;entryDx=0;entryDy=0;entryPerimeter=0;exitX=0;exitY=0.5;exitDx=0;exitDy=0;" edge="1" parent="1" source="dI0Ek6C9HSeSVLDOAz8v-4" target="dI0Ek6C9HSeSVLDOAz8v-1">
          <mxGeometry width="50" height="50" relative="1" as="geometry">
            <mxPoint x="281" y="330" as="sourcePoint" />
            <mxPoint x="200" y="180" as="targetPoint" />
          </mxGeometry>
        </mxCell>
        <mxCell id="dI0Ek6C9HSeSVLDOAz8v-12" value="&amp;lt;&amp;lt;Extend&amp;gt;&amp;gt;" style="endArrow=open;endSize=12;dashed=1;html=1;rounded=0;exitX=0.5;exitY=1;exitDx=0;exitDy=0;entryX=0;entryY=0;entryDx=0;entryDy=0;" edge="1" parent="1" source="dI0Ek6C9HSeSVLDOAz8v-4" target="dI0Ek6C9HSeSVLDOAz8v-6">
          <mxGeometry width="160" relative="1" as="geometry">
            <mxPoint x="390" y="250" as="sourcePoint" />
            <mxPoint x="550" y="250" as="targetPoint" />
          </mxGeometry>
        </mxCell>
        <mxCell id="dI0Ek6C9HSeSVLDOAz8v-13" value="" style="endArrow=none;html=1;rounded=0;entryX=1;entryY=0.3333333333333333;entryDx=0;entryDy=0;entryPerimeter=0;" edge="1" parent="1" target="dI0Ek6C9HSeSVLDOAz8v-1">
          <mxGeometry width="50" height="50" relative="1" as="geometry">
            <mxPoint x="450" y="290" as="sourcePoint" />
            <mxPoint x="200" y="180" as="targetPoint" />
          </mxGeometry>
        </mxCell>
        <mxCell id="dI0Ek6C9HSeSVLDOAz8v-14" value="Check Availability" style="ellipse;whiteSpace=wrap;html=1;" vertex="1" parent="1">
          <mxGeometry x="520" y="80" width="140" height="70" as="geometry" />
        </mxCell>
        <mxCell id="dI0Ek6C9HSeSVLDOAz8v-18" style="edgeStyle=orthogonalEdgeStyle;rounded=0;orthogonalLoop=1;jettySize=auto;html=1;entryX=0.5;entryY=1;entryDx=0;entryDy=0;exitX=1;exitY=0.5;exitDx=0;exitDy=0;" edge="1" parent="1" source="dI0Ek6C9HSeSVLDOAz8v-6" target="dI0Ek6C9HSeSVLDOAz8v-14">
          <mxGeometry relative="1" as="geometry">
            <mxPoint x="470" y="185" as="sourcePoint" />
            <mxPoint x="530" y="125" as="targetPoint" />
          </mxGeometry>
        </mxCell>
        <mxCell id="dI0Ek6C9HSeSVLDOAz8v-19" value="include" style="edgeLabel;html=1;align=center;verticalAlign=middle;resizable=0;points=[];" vertex="1" connectable="0" parent="dI0Ek6C9HSeSVLDOAz8v-18">
          <mxGeometry x="0.129" y="-3" relative="1" as="geometry">
            <mxPoint x="-23" y="14" as="offset" />
          </mxGeometry>
        </mxCell>
      </root>
    </mxGraphModel>
  </diagram>
</mxfile>
